<svg xmlns:xlink="http://www.w3.org/1999/xlink" xmlns="http://www.w3.org/2000/svg" width="210" height="37.322709638162316" viewBox="0 0 210 37.322709638162316" class="css-1j8o68f"><defs id="SvgjsDefs4425"></defs><g id="SvgjsG4426" featurekey="textGroupContainer" transform="matrix(1,0,0,1,0,1)" fill="#211B03"><rect xmlns="http://www.w3.org/2000/svg" y="0" x="0" height="1" width="1" opacity="0" fill="#211B03"></rect><rect xmlns="http://www.w3.org/2000/svg" y="33.3" x="0" width="8" height="2" fill="#211B03"></rect><rect xmlns="http://www.w3.org/2000/svg" y="33.3" x="202" width="8" height="2" fill="#211B03"></rect></g><g id="SvgjsG4427" featurekey="YhTCwJ-0" transform="matrix(1.5712661794221456,0,0,1.5712661794221456,2.755289021593941,-8.978213804382325)" fill="#F5C213"><path d="M5.1429 20 l-1.5714 0 l-2.1429 -2.1429 l0 -12.143 l3.7143 0 l0 14.286 z M5.7143 5.714 l7.8571 0 l0 3.1429 l-7.8571 0 l0 -3.1429 z M12.429 11.2857 l0 3.1429 l-6.7143 0 l0 -3.1429 l6.7143 0 z M5.7143 20 l0 -3.1429 l7.8571 0 l0 3.1429 l-7.8571 0 z M22.1429 14.2 l-1.8571 5.2286 l-4.5714 -12 l0 -1.7143 l3.4286 0 z M25.714 5.714 l3.4286 0 l0 1.7143 l-4.7714 12.571 l-3.7143 0 z M35.00004285714285 20 l-1.5714 0 l-2.1429 -2.1429 l0 -12.143 l3.7143 0 l0 14.286 z M35.571442857142856 5.714 l7.8571 0 l0 3.1429 l-7.8571 0 l0 -3.1429 z M42.286142857142856 11.2857 l0 3.1429 l-6.7143 0 l0 -3.1429 l6.7143 0 z M35.571442857142856 20 l0 -3.1429 l7.8571 0 l0 3.1429 l-7.8571 0 z M50.00004285714285 20 l-3.7143 0 l0 -14.286 l3.7143 0 l0 14.286 z M59.143142857142855 7.856999999999999 l0 5 l-2.1429 2.1429 l2.1429 3.2857 l0 1.7143 l-3.4286 0 l-2.9714 -4.8571 l-2.1714 0 l0 -3.1429 l4.8571 0 l0 -3.1429 l-4.8571 0 l0 -3.1429 l6.4286 0 z M65.71432857142857 20 l-1.5714 0 l-2.1429 -2.1429 l0 -10 l2.1429 -2.1429 l1.5714 0 l0 14.286 z M72.42842857142857 5.714 l2.1429 2.1429 l0 10 l-2.1429 2.1429 l-6.1429 0 l0 -3.1429 l4.5714 0 l0 -8 l-4.5714 0 l0 -3.1429 l6.1429 0 z M86.286 5.714 l3.7143 0 l0 14.286 l-3.2857 0 l-9.2857 -13.343 l0 -0.94286 l3.2857 0 l5.5714 7.9429 l0 -7.9429 z M77.4286 7.6 l3.7143 5.3143 l0 7.0857 l-3.7143 0 l0 -12.4 z M92.42857142857143 20 l0 -2.8571 l1.1429 0 l0 -8.5714 l-1.1429 0 l0 -2.8571 l6 0 l0 2.8571 l-1.1429 0 l0 8.5714 l1.1429 0 l0 2.8571 l-6 0 z M104.57147142857143 20 l-1.5714 0 l-2.1429 -2.1429 l0 -10 l2.1429 -2.1429 l1.5714 0 l0 14.286 z M110.85757142857143 5.714 l2.1429 2.1429 l0 2.1429 l-2.7143 0 l-1.1429 -1.1429 l-4 0 l0 -3.1429 l5.7143 0 z M109.14287142857142 16.8571 l1.1429 -1.1429 l2.7143 0 l0 2.1429 l-2.1429 2.1429 l-5.7143 0 l0 -3.1429 l4 0 z M119.57147142857143 11.2857 l7 0 l2.1429 2.1429 l0 4.4286 l-2.1429 2.1429 l-1.5714 0 l0 -5.5714 l-7 0 l-2.1429 -2.1429 l0 -4.4286 l2.1429 -2.1429 l1.5714 0 l0 5.5714 z M126.57157142857143 5.714 l2.1429 2.1429 l0 2.1429 l-2.7143 0 l-1.1429 -1.1429 l-4.7143 0 l0 -3.1429 l6.4286 0 z M124.42857142857143 16.8571 l0 3.1429 l-6.4286 0 l-2.1429 -2.1429 l0 -2.1429 l2.7143 0 l1.1429 1.1429 l4.7143 0 z" fill="#F5C213"></path></g><g id="SvgjsG4428" featurekey="duLK5n-0" transform="matrix(0.3572288439217656,0,0,0.3572288439217656,12.85710825802331,30.09954351105373)" fill="#211B03"><path d="M14.68 20 l-4.2 -7.34 l-4.18 7.34 l-1.92 0 l-3.98 -14.24 l1.88 0 l3.3 11.9 l3.9 -6.84 l2.02 0 l3.88 6.84 l3.32 -11.9 l1.88 0 l-3.98 14.24 l-1.92 0 z M29.908 20 l0 -14.24 l9 0 l0 1.72 l-7.2 0 l0 3.34 l6.28 0 l0 1.78 l-6.28 0 l0 5.64 l7.02 0 l0 1.76 l-8.82 0 z M59.904 20 l0 -14.24 l4.96 0 c0.9 0 1.76 0.36 2.4 1 s1 1.5 1 2.4 c0 1.88 -1.54 3.38 -3.4 3.38 l-3.18 0 l0 7.46 l-1.78 0 z M64.864 10.8 c0.88 0 1.6 -0.74 1.6 -1.64 s-0.72 -1.66 -1.6 -1.66 l-3.18 0 l0 3.3 l3.18 0 z M83.132 12.42 l5.5 7.58 l-2.06 0 l-5.44 -7.48 l-2.04 0 l0 7.48 l-1.72 0 l0 -14.24 l4.94 0 c0.9 0 1.74 0.36 2.38 1 s1 1.48 1 2.38 c0 1.58 -1.1 2.9 -2.56 3.28 z M79.092 7.48 l0 3.32 l3.22 0 c0.92 0 1.66 -0.74 1.66 -1.66 s-0.74 -1.66 -1.66 -1.66 l-3.22 0 z M102.86000000000001 5.32 c4.1 0 7.46 3.34 7.46 7.46 c0 4.1 -3.36 7.42 -7.46 7.42 s-7.44 -3.32 -7.44 -7.42 c0 -4.12 3.34 -7.46 7.44 -7.46 z M102.86000000000001 18.44 c3.12 0 5.64 -2.56 5.64 -5.66 c0 -3.12 -2.52 -5.7 -5.64 -5.7 s-5.64 2.58 -5.64 5.7 c0 3.1 2.52 5.66 5.64 5.66 z M117.48800000000001 5.76 l1.94 0 l4.48 11.66 l4.5 -11.66 l1.92 0 l-5.48 14.24 l-1.86 0 z M139.856 20 l0 -14.24 l1.8 0 l0 14.24 l-1.8 0 z M152.284 20 l0 -14.24 l4.6 0 c4.04 0 7.32 3.2 7.32 7.12 s-3.28 7.12 -7.32 7.12 l-4.6 0 z M156.884 18.26 c3.06 0 5.54 -2.44 5.54 -5.38 s-2.48 -5.38 -5.54 -5.38 l-2.82 0 l0 10.76 l2.82 0 z M173.45199999999997 20 l0 -14.24 l9 0 l0 1.72 l-7.2 0 l0 3.34 l6.28 0 l0 1.78 l-6.28 0 l0 5.64 l7.02 0 l0 1.76 l-8.82 0 z M203.748 20 l0 -14.24 l9 0 l0 1.72 l-7.2 0 l0 3.34 l6.28 0 l0 1.78 l-6.28 0 l0 5.64 l7.02 0 l0 1.76 l-8.82 0 z M221.33599999999998 5.76 l1.94 0 l4.48 11.66 l4.5 -11.66 l1.92 0 l-5.48 14.24 l-1.86 0 z M242.944 20 l0 -14.24 l9 0 l0 1.72 l-7.2 0 l0 3.34 l6.28 0 l0 1.78 l-6.28 0 l0 5.64 l7.02 0 l0 1.76 l-8.82 0 z M267.192 12.42 l5.5 7.58 l-2.06 0 l-5.44 -7.48 l-2.04 0 l0 7.48 l-1.72 0 l0 -14.24 l4.94 0 c0.9 0 1.74 0.36 2.38 1 s1 1.48 1 2.38 c0 1.58 -1.1 2.9 -2.56 3.28 z M263.152 7.48 l0 3.32 l3.22 0 c0.92 0 1.66 -0.74 1.66 -1.66 s-0.74 -1.66 -1.66 -1.66 l-3.22 0 z M283.69999999999993 20 l0 -7.2 l-5.02 -7.04 l2.2 0 l3.74 5.22 l3.74 -5.22 l2.18 0 l-5.02 7.04 l0 7.2 l-1.82 0 z M311.51599999999996 20 l0 -14.24 l9 0 l0 1.72 l-7.2 0 l0 3.34 l6.28 0 l0 1.78 l-6.28 0 l0 5.64 l7.02 0 l0 1.76 l-8.82 0 z M329.9239999999999 20 l0 -14.24 l1.8 0 l0 12.5 l7.8 0 l0 1.74 l-9.6 0 z M348.9719999999999 20 l0 -14.24 l9 0 l0 1.72 l-7.2 0 l0 3.34 l6.28 0 l0 1.78 l-6.28 0 l0 5.64 l7.02 0 l0 1.76 l-8.82 0 z M373.8799999999999 18.46 c1.78 0 3.44 -0.82 4.54 -2.26 l1.4 1.04 c-1.42 1.9 -3.6 2.98 -5.94 2.98 c-4.12 0 -7.46 -3.34 -7.46 -7.46 c0 -4.1 3.34 -7.44 7.46 -7.44 c2.36 0 4.54 1.1 5.96 3 l-1.42 1.04 c-1.08 -1.46 -2.74 -2.28 -4.54 -2.28 c-3.16 0 -5.7 2.54 -5.7 5.68 c0 3.16 2.54 5.7 5.7 5.7 z M392.0079999999999 20 l0 -12.48 l-3.76 0 l0 -1.76 l9.32 0 l0 1.76 l-3.76 0 l0 12.48 l-1.8 0 z M412.29599999999994 12.42 l5.5 7.58 l-2.06 0 l-5.44 -7.48 l-2.04 0 l0 7.48 l-1.72 0 l0 -14.24 l4.94 0 c0.9 0 1.74 0.36 2.38 1 s1 1.48 1 2.38 c0 1.58 -1.1 2.9 -2.56 3.28 z M408.2559999999999 7.48 l0 3.32 l3.22 0 c0.92 0 1.66 -0.74 1.66 -1.66 s-0.74 -1.66 -1.66 -1.66 l-3.22 0 z M432.0239999999999 5.32 c4.1 0 7.46 3.34 7.46 7.46 c0 4.1 -3.36 7.42 -7.46 7.42 s-7.44 -3.32 -7.44 -7.42 c0 -4.12 3.34 -7.46 7.44 -7.46 z M432.0239999999999 18.44 c3.12 0 5.64 -2.56 5.64 -5.66 c0 -3.12 -2.52 -5.7 -5.64 -5.7 s-5.64 2.58 -5.64 5.7 c0 3.1 2.52 5.66 5.64 5.66 z M458.3119999999999 20 l-7.62 -11.26 l0 11.26 l-1.8 0 l0 -14.24 l1.96 0 l7.6 11.26 l0 -11.26 l1.8 0 l0 14.24 l-1.94 0 z M471.3799999999999 20 l0 -14.24 l1.8 0 l0 14.24 l-1.8 0 z M490.4679999999999 18.46 c1.78 0 3.44 -0.82 4.54 -2.26 l1.4 1.04 c-1.42 1.9 -3.6 2.98 -5.94 2.98 c-4.12 0 -7.46 -3.34 -7.46 -7.46 c0 -4.1 3.34 -7.44 7.46 -7.44 c2.36 0 4.54 1.1 5.96 3 l-1.42 1.04 c-1.08 -1.46 -2.74 -2.28 -4.54 -2.28 c-3.16 0 -5.7 2.54 -5.7 5.68 c0 3.16 2.54 5.7 5.7 5.7 z M510.59599999999995 20.14 c-0.48 0 -0.96 -0.06 -1.44 -0.16 c-1.48 -0.3 -2.94 -1.04 -4.24 -2.16 l1.18 -1.34 c1.06 0.92 2.24 1.54 3.42 1.78 c1 0.22 1.98 0.14 2.76 -0.22 c0.52 -0.24 1.42 -0.84 1.42 -2.06 c0 -1.5 -1.6 -2.04 -3.16 -2.34 c-0.14 -0.02 -2.38 -0.48 -3.28 -1 c-1.2 -0.72 -1.84 -1.8 -1.84 -3.12 c0 -0.74 0.24 -1.44 0.66 -2.06 c0.42 -0.56 1 -1.02 1.68 -1.34 c1 -0.48 2.18 -0.62 3.38 -0.42 c1.3 0.22 2.62 0.84 3.78 1.8 l-1.14 1.38 c-2.06 -1.7 -4.06 -1.74 -5.26 -1.18 c-0.82 0.38 -1.3 1.08 -1.3 1.8 c0 1.36 1.16 1.88 3 2.28 c0.76 0.18 2.34 0.44 3.28 0.98 c1.3 0.72 1.98 1.84 1.98 3.22 c0 0.82 -0.22 1.58 -0.68 2.24 c-0.42 0.6 -1.06 1.06 -1.78 1.42 c-0.76 0.38 -1.54 0.5 -2.42 0.5 z" fill="#211B03"></path></g></svg>